<svg width="216" height="284" viewBox="0 0 216 284" fill="none" xmlns="http://www.w3.org/2000/svg">
<path fill-rule="evenodd" clip-rule="evenodd" d="M13.252 3.02565C10.324 4.70465 6.86701 7.75265 5.43401 9.91865C-0.208994 18.4456 0.00100775 13.3587 0.00100775 141.58C0.00100775 225.979 0.325008 261.247 1.13201 264.743C2.57901 271.014 6.42101 276.643 11.867 280.471L16.173 283.497L107.096 283.763C195.918 284.022 198.109 283.982 201.889 282.054C207.907 278.984 213.697 271.75 215.005 265.667C215.797 261.987 216.029 225.486 215.809 138.997L215.501 17.4967L213.31 13.4016C212.105 11.1496 209.501 7.88665 207.523 6.14965C200.13 -0.340349 205.602 -0.00434653 107.629 0.00565347L18.501 0.015648L13.252 3.02565ZM198.017 11.8506C199.933 12.8706 202.506 15.4576 203.735 17.6006L205.968 21.4967L205.985 141.787C206.001 260.912 205.981 262.115 203.961 266.076C202.838 268.276 200.476 270.956 198.711 272.032C195.589 273.936 193.1 273.99 108.399 273.993L21.297 273.997L17.953 271.744C16.114 270.504 13.685 267.917 12.555 265.994C10.52 262.529 10.498 261.439 10.199 146.497C10.033 82.6967 10.175 28.1567 10.515 25.2967C11.262 19.0037 14.341 14.0996 19.021 11.7486C22.253 10.1246 28.622 9.99965 108.517 9.99865C190.358 9.99665 194.701 10.0866 198.017 11.8506ZM51.5 20.2127C51.245 20.9187 50.916 35.2217 50.769 51.9967L50.501 82.4967L44.12 93.4967C40.611 99.5467 35.257 108.716 32.224 113.872C25.301 125.639 23.489 131.381 24.965 136.863C25.725 139.685 27.024 141.466 29.389 142.928C32.499 144.85 34.246 144.997 53.935 144.997C67.876 144.997 75.88 144.606 77.317 143.855C78.518 143.228 85.685 137.378 93.243 130.855C100.802 124.333 107.58 118.997 108.306 118.997C109.031 118.997 114.772 123.536 121.063 129.083C127.354 134.63 134.526 140.5 137.001 142.127L141.501 145.086L163.835 144.791L186.169 144.497L189.195 141.108C191.957 138.015 192.186 137.226 191.813 132.074C191.447 127.008 190.103 124.154 178.717 104.257L166.03 82.0846L165.765 50.7907L165.501 19.4967H154.501H143.501L143.239 52.4967L142.976 85.4967L152.547 102.822C157.812 112.351 161.975 120.901 161.8 121.822C161.548 123.143 160.117 123.561 155.022 123.8C151.469 123.967 147.515 123.841 146.234 123.519C144.954 123.198 137.115 116.761 128.816 109.216C120.516 101.671 112.445 94.4576 110.88 93.1876L108.035 90.8787L93.268 104.2C69.253 125.864 72.052 123.997 63.589 123.997C52.262 123.997 52.262 124.126 63.697 103.329L73.501 85.4967V52.4967V19.4967L62.733 19.2127C54.666 18.9997 51.848 19.2507 51.5 20.2127ZM92.196 138.945C84.328 144.937 76.499 150.325 74.797 150.918C72.968 151.556 63.217 151.997 50.958 151.997H30.213L27.107 154.898C24.448 157.382 24.001 158.506 24.001 162.712C24.001 166.909 24.684 168.636 28.684 174.561C31.259 178.376 37.106 187.122 41.676 193.997L49.987 206.497L49.994 235.247L50.001 263.997H62.042H74.084L73.792 233.747L73.501 203.497L63.147 188.24C56.906 179.046 53.02 172.39 53.365 171.49C53.834 170.268 56.39 169.997 67.46 169.997H80.983L93.472 161.497C100.342 156.822 106.983 153.002 108.231 153.009C109.48 153.016 116.093 156.841 122.927 161.509L135.353 169.997H149.118C157.871 169.997 163.125 170.389 163.548 171.074C163.915 171.666 159.441 179.314 153.608 188.069L143.001 203.987V234.024V264.06L154.751 263.779L166.501 263.497L167.001 233.997L167.501 204.497L180.36 185.561C192.986 166.967 193.21 166.542 192.708 162.093C192.321 158.655 191.446 156.89 189.084 154.779L185.969 151.997L164.735 151.985C139.872 151.971 142.946 153.018 122.745 137.681C115.73 132.355 109.205 128.009 108.245 128.024C107.286 128.038 100.064 132.953 92.196 138.945Z" fill="white"/>
</svg>
